<?xml version="1.0" encoding="UTF-8"?>
<svg id="_レイヤー_1" data-name="レイヤー 1" xmlns="http://www.w3.org/2000/svg" viewBox="0 0 928.28 984.51">
  <defs>
    <style>
      .cls-1 {
        fill: #37bbcc;
      }

      .cls-2 {
        fill: #f5bc39;
      }

      .cls-3 {
        fill: #ebb73c;
        stroke: #ebb73c;
        stroke-miterlimit: 10;
        stroke-width: 11px;
      }
    </style>
  </defs>
  <path class="cls-1" d="M765.22,687.83v-1.21c-3.43.47-6.87.92-10.32,1.33-63.59,92.96-165.89,147.99-274.79,147.82-186.13.5-337.41-157.75-337.89-353.48h0c.19-148.66,88.74-281.34,221.63-332.07-.72-7.35-1.21-14.71-1.49-22.07h-16.98V0C145.8,60.98,0,253.79,0,482.19c0,277.49,214.97,502.32,480.11,502.32,190.43.26,360.98-117.54,437.97-296.67h-152.87Z"/>
  <path class="cls-1" d="M610.41,495.64c-.16,72.57-56.88,131.27-126.69,131.11-.03,0-.06,0-.1,0-69.81.28-126.61-58.33-126.88-130.91,0-.07,0-.13,0-.2.11-72.57,56.78-131.32,126.59-131.21.1,0,.19,0,.29,0,69.81-.22,126.57,58.43,126.78,131.01,0,.07,0,.13,0,.2Z"/>
  <g>
    <path class="cls-2" d="M595.64,702.18c3.94,39.34-1.03,79.08-14.51,116.12,125.26-26.22,226.58-119.99,266.13-242.5h-113.77c-27.95,57.48-76.52,103.46-137.85,126.38Z"/>
    <path class="cls-2" d="M836.47,461.41c0,39.96-120.08,78.41-131.7,114.39h223.51l-51.44-118.14"/>
    <path class="cls-2" d="M862.87,457.66h-137.51l-48.58,118.14h54.44"/>
    <path class="cls-2" d="M509.51,97.02c-155.37-.2-292.87,103.46-339.59,256,42.72-21.57,88.74-35.38,136.02-40.84,47.12-67.41,122.9-107.32,203.57-107.21,67.72-.18,129.2,27.42,174.28,72.37h132.73c-61.75-107.9-176.12-180.32-307.02-180.32Z"/>
  </g>
  <path class="cls-3" d="M489.32,559.39c-1.83,2.42-5.57,1.07-5.57-2v-29.54c0-3.58-2.79-6.49-6.24-6.49h-31.37c-2.54,0-4.02-2.98-2.54-5.13l20.63-30.02c2.95-4.29,0-10.26-5.08-10.26h-37.97c-2.54,0-4.02-2.98-2.54-5.13l26.74-38.93c.59-.85,1.53-1.36,2.54-1.36h79.69c2.54,0,4.02,2.98,2.54,5.13l-20.63,30.02c-2.95,4.29,0,10.26,5.08,10.26h31.38c2.6,0,4.06,3.12,2.45,5.25l-59.1,78.2h0Z"/>
</svg>